<svg xmlns="http://www.w3.org/2000/svg" width="256" height="256" viewBox="0 0 100 100"><rect width="100" height="100" rx="20" fill="#f7dbf2"></rect><path d="M32.72 81.50L32.72 81.50L15.71 81.50Q14.90 81.50 14.32 80.92Q13.73 80.33 13.73 79.79Q13.73 79.25 13.82 78.98L13.82 78.98L33.44 21.47Q34.25 18.50 37.49 18.50L37.49 18.50L62.51 18.50Q65.75 18.50 66.56 21.47L66.56 21.47L86.18 78.98Q86.27 79.25 86.27 79.79Q86.27 80.33 85.69 80.92Q85.10 81.50 84.29 81.50L84.29 81.50L67.28 81.50Q64.40 81.50 63.23 78.44L63.23 78.44L60.98 72.14L39.02 72.14L36.77 78.44Q35.60 81.50 32.72 81.50ZM43.61 54.59L56.39 54.59L50 35.87L43.61 54.59Z" fill="#897d7d"></path></svg>